<svg xmlns="http://www.w3.org/2000/svg" viewBox="0 0 800 560" width="800" height="560"><defs><linearGradient id="sk" x1="0" y1="0" x2="0" y2="1"><stop offset="0" stop-color="#9B7BC9"/><stop offset=".55" stop-color="#FF8A7A"/><stop offset="1" stop-color="#FFD75E"/></linearGradient></defs><rect width="800" height="560" fill="url(#sk)"/><circle cx="668" cy="100" r="60" fill="#FFF0B8" opacity=".45"/><circle cx="668" cy="100" r="45" fill="#FFF0B8" opacity=".55"/><circle cx="668" cy="100" r="34" fill="#FFC93C"/><polygon points="-40,300 120,150 260,260 380,110 520,240 660,130 840,300" fill="#B4E4EC" opacity="1"/><polygon points="-40,330 90,210 240,310 400,180 560,290 700,190 840,330" fill="#3E96A6" opacity="1"/><rect x="0" y="336" width="800" height="60" fill="#3EB6E0" opacity=".7"/><rect x="60" y="360" width="680" height="150" rx="20" fill="#6FD4EE"/><rect x="60" y="360" width="680" height="150" rx="20" fill="none" stroke="#fff" stroke-width="7"/><path d="M110 400 q 32 -12 64 0 t 64 0" stroke="#fff" stroke-width="6" fill="none" opacity=".75" stroke-linecap="round"/><path d="M240 444 q 32 -12 64 0 t 64 0" stroke="#fff" stroke-width="6" fill="none" opacity=".75" stroke-linecap="round"/><path d="M370 400 q 32 -12 64 0 t 64 0" stroke="#fff" stroke-width="6" fill="none" opacity=".75" stroke-linecap="round"/><path d="M500 444 q 32 -12 64 0 t 64 0" stroke="#fff" stroke-width="6" fill="none" opacity=".75" stroke-linecap="round"/><path d="M630 400 q 32 -12 64 0 t 64 0" stroke="#fff" stroke-width="6" fill="none" opacity=".75" stroke-linecap="round"/><g transform="translate(100,350) scale(0.8)"><path d="M0 0 C -6 -40 -4 -70 2 -96" stroke="#B5651D" stroke-width="11" fill="none" stroke-linecap="round"/><path d="M2 -96 q 18 -32 31 -2" stroke="#57C078" stroke-width="13" fill="none" stroke-linecap="round"/><path d="M2 -96 q 44 -23 75 1" stroke="#57C078" stroke-width="13" fill="none" stroke-linecap="round"/><path d="M2 -96 q 54 -8 92 6" stroke="#57C078" stroke-width="13" fill="none" stroke-linecap="round"/><path d="M2 -96 q 44 -23 75 1" stroke="#57C078" stroke-width="13" fill="none" stroke-linecap="round"/><path d="M2 -96 q 18 -32 31 -2" stroke="#57C078" stroke-width="13" fill="none" stroke-linecap="round"/><path d="M2 -96 q -18 -32 -31 -2" stroke="#57C078" stroke-width="13" fill="none" stroke-linecap="round"/><path d="M2 -96 q -18 -32 -31 -2" stroke="#57C078" stroke-width="13" fill="none" stroke-linecap="round"/></g><g transform="translate(706,356) scale(0.78)"><path d="M0 0 C -6 -40 -4 -70 2 -96" stroke="#B5651D" stroke-width="11" fill="none" stroke-linecap="round"/><path d="M2 -96 q 18 -32 31 -2" stroke="#57C078" stroke-width="13" fill="none" stroke-linecap="round"/><path d="M2 -96 q 44 -23 75 1" stroke="#57C078" stroke-width="13" fill="none" stroke-linecap="round"/><path d="M2 -96 q 54 -8 92 6" stroke="#57C078" stroke-width="13" fill="none" stroke-linecap="round"/><path d="M2 -96 q 44 -23 75 1" stroke="#57C078" stroke-width="13" fill="none" stroke-linecap="round"/><path d="M2 -96 q 18 -32 31 -2" stroke="#57C078" stroke-width="13" fill="none" stroke-linecap="round"/><path d="M2 -96 q -18 -32 -31 -2" stroke="#57C078" stroke-width="13" fill="none" stroke-linecap="round"/><path d="M2 -96 q -18 -32 -31 -2" stroke="#57C078" stroke-width="13" fill="none" stroke-linecap="round"/></g><rect x="0" y="534" width="800" height="26" fill="#123F5F"/><polygon points="0,547.0 20.0,534 40,547.0 20.0,560" fill="#12A594"/><polygon points="20.0,547.0 30.0,540.5 40,547.0 30.0,553.5" fill="#7A5AA8" opacity=".9"/><polygon points="40,547.0 60.0,534 80,547.0 60.0,560" fill="#FFF6E8"/><polygon points="60.0,547.0 70.0,540.5 80,547.0 70.0,553.5" fill="#FF8C2B" opacity=".9"/><polygon points="80,547.0 100.0,534 120,547.0 100.0,560" fill="#7A5AA8"/><polygon points="100.0,547.0 110.0,540.5 120,547.0 110.0,553.5" fill="#E8452C" opacity=".9"/><polygon points="120,547.0 140.0,534 160,547.0 140.0,560" fill="#FF8C2B"/><polygon points="140.0,547.0 150.0,540.5 160,547.0 150.0,553.5" fill="#FFC93C" opacity=".9"/><polygon points="160,547.0 180.0,534 200,547.0 180.0,560" fill="#E8452C"/><polygon points="180.0,547.0 190.0,540.5 200,547.0 190.0,553.5" fill="#12A594" opacity=".9"/><polygon points="200,547.0 220.0,534 240,547.0 220.0,560" fill="#FFC93C"/><polygon points="220.0,547.0 230.0,540.5 240,547.0 230.0,553.5" fill="#FFF6E8" opacity=".9"/><polygon points="240,547.0 260.0,534 280,547.0 260.0,560" fill="#12A594"/><polygon points="260.0,547.0 270.0,540.5 280,547.0 270.0,553.5" fill="#7A5AA8" opacity=".9"/><polygon points="280,547.0 300.0,534 320,547.0 300.0,560" fill="#FFF6E8"/><polygon points="300.0,547.0 310.0,540.5 320,547.0 310.0,553.5" fill="#FF8C2B" opacity=".9"/><polygon points="320,547.0 340.0,534 360,547.0 340.0,560" fill="#7A5AA8"/><polygon points="340.0,547.0 350.0,540.5 360,547.0 350.0,553.5" fill="#E8452C" opacity=".9"/><polygon points="360,547.0 380.0,534 400,547.0 380.0,560" fill="#FF8C2B"/><polygon points="380.0,547.0 390.0,540.5 400,547.0 390.0,553.5" fill="#FFC93C" opacity=".9"/><polygon points="400,547.0 420.0,534 440,547.0 420.0,560" fill="#E8452C"/><polygon points="420.0,547.0 430.0,540.5 440,547.0 430.0,553.5" fill="#12A594" opacity=".9"/><polygon points="440,547.0 460.0,534 480,547.0 460.0,560" fill="#FFC93C"/><polygon points="460.0,547.0 470.0,540.5 480,547.0 470.0,553.5" fill="#FFF6E8" opacity=".9"/><polygon points="480,547.0 500.0,534 520,547.0 500.0,560" fill="#12A594"/><polygon points="500.0,547.0 510.0,540.5 520,547.0 510.0,553.5" fill="#7A5AA8" opacity=".9"/><polygon points="520,547.0 540.0,534 560,547.0 540.0,560" fill="#FFF6E8"/><polygon points="540.0,547.0 550.0,540.5 560,547.0 550.0,553.5" fill="#FF8C2B" opacity=".9"/><polygon points="560,547.0 580.0,534 600,547.0 580.0,560" fill="#7A5AA8"/><polygon points="580.0,547.0 590.0,540.5 600,547.0 590.0,553.5" fill="#E8452C" opacity=".9"/><polygon points="600,547.0 620.0,534 640,547.0 620.0,560" fill="#FF8C2B"/><polygon points="620.0,547.0 630.0,540.5 640,547.0 630.0,553.5" fill="#FFC93C" opacity=".9"/><polygon points="640,547.0 660.0,534 680,547.0 660.0,560" fill="#E8452C"/><polygon points="660.0,547.0 670.0,540.5 680,547.0 670.0,553.5" fill="#12A594" opacity=".9"/><polygon points="680,547.0 700.0,534 720,547.0 700.0,560" fill="#FFC93C"/><polygon points="700.0,547.0 710.0,540.5 720,547.0 710.0,553.5" fill="#FFF6E8" opacity=".9"/><polygon points="720,547.0 740.0,534 760,547.0 740.0,560" fill="#12A594"/><polygon points="740.0,547.0 750.0,540.5 760,547.0 750.0,553.5" fill="#7A5AA8" opacity=".9"/><polygon points="760,547.0 780.0,534 800,547.0 780.0,560" fill="#FFF6E8"/><polygon points="780.0,547.0 790.0,540.5 800,547.0 790.0,553.5" fill="#FF8C2B" opacity=".9"/><polygon points="800,547.0 820.0,534 840,547.0 820.0,560" fill="#7A5AA8"/><polygon points="820.0,547.0 830.0,540.5 840,547.0 830.0,553.5" fill="#E8452C" opacity=".9"/></svg>